<?xml version="1.0" standalone="no"?>
<!DOCTYPE svg PUBLIC "-//W3C//DTD SVG 20010904//EN"
 "http://www.w3.org/TR/2001/REC-SVG-20010904/DTD/svg10.dtd">
<svg version="1.0" xmlns="http://www.w3.org/2000/svg"
 width="500.000000pt" height="667.000000pt" viewBox="0 0 500.000000 667.000000"
 preserveAspectRatio="xMidYMid meet">

<g transform="translate(0.000000,667.000000) scale(0.100000,-0.100000)"
fill="#000000" stroke="none">
<path d="M1912 4630 c2 -22 6 -40 10 -40 17 0 19 -42 2 -54 -25 -19 -8 -39 27
-32 24 4 33 -1 59 -32 37 -45 37 -52 2 -52 -28 0 -95 40 -189 111 -44 34 -63
32 -63 -6 0 -15 11 -31 33 -46 l32 -22 -29 31 -30 32 25 0 c13 0 48 -18 77
-40 71 -54 121 -80 153 -80 49 0 42 35 -19 100 -25 26 -72 112 -72 130 0 21
28 -5 72 -65 24 -33 68 -84 96 -113 29 -29 52 -58 52 -63 0 -5 5 -9 10 -9 18
0 10 22 -18 48 -44 41 -54 65 -40 94 l12 26 18 -40 c10 -22 18 -45 18 -51 0
-6 8 -20 19 -31 10 -12 28 -51 40 -87 12 -36 29 -75 37 -85 14 -17 15 -17 10
-1 -4 11 -2 16 5 11 6 -3 21 -2 32 3 35 16 92 33 111 33 27 0 2 -36 -33 -48
-16 -6 -44 -30 -60 -53 -17 -23 -45 -52 -63 -64 l-32 -22 -35 25 c-30 20 -45
23 -93 20 l-57 -4 -37 63 c-20 35 -40 66 -44 68 -3 2 -26 5 -51 5 -24 1 -66 4
-93 7 -60 6 -43 23 25 23 50 0 149 26 149 39 0 5 -25 21 -55 37 -31 15 -60 33
-66 41 -7 7 -16 13 -21 13 -19 0 13 -29 64 -59 48 -27 50 -29 30 -40 -11 -6
-59 -11 -106 -11 -79 0 -86 -2 -86 -20 0 -27 24 -36 113 -43 90 -6 105 -16
137 -84 16 -35 20 -55 15 -91 -10 -77 -25 -101 -80 -137 -48 -30 -55 -40 -80
-107 -15 -40 -36 -91 -47 -113 -16 -36 -16 -37 -1 -16 10 14 34 63 55 110 32
76 41 89 81 112 24 15 68 34 97 42 63 19 91 10 153 -44 l38 -34 -3 -115 -3
-115 -39 58 c-21 31 -46 57 -55 57 -69 -1 -158 -24 -223 -58 -40 -21 -84 -41
-97 -45 -13 -3 -20 -10 -16 -17 5 -8 11 -7 23 2 14 11 14 9 -1 -8 -9 -11 -14
-24 -10 -28 4 -4 3 -10 -2 -14 -22 -15 -105 -228 -105 -267 0 -24 214 -153
315 -190 277 -103 349 -127 551 -185 69 -19 73 -22 93 -65 12 -25 27 -45 34
-45 19 0 39 -63 44 -144 5 -82 21 -176 33 -191 14 -17 29 -164 24 -235 -2 -36
-9 -114 -15 -174 -6 -63 -8 -162 -4 -235 8 -160 -2 -211 -65 -333 -27 -53 -50
-108 -50 -122 0 -20 12 -35 50 -62 77 -55 77 -60 9 -131 -47 -48 -59 -68 -59
-93 0 -45 16 -69 57 -86 26 -11 33 -19 28 -32 -16 -39 -45 -496 -49 -759 l-5
-283 303 0 303 0 11 22 c6 13 12 34 14 48 4 31 46 48 86 34 20 -7 31 -20 42
-55 15 -46 15 -47 57 -46 24 0 43 5 43 9 0 5 5 6 12 2 7 -4 104 -8 216 -8
l203 -1 0 80 c-1 44 3 199 8 345 5 146 8 274 7 285 -2 11 -1 14 1 7 11 -31 21
-5 25 66 4 63 10 89 37 139 51 96 143 198 212 234 54 29 59 35 74 84 8 29 15
58 15 64 0 7 13 37 29 69 15 31 34 75 41 97 6 22 27 69 45 105 18 36 41 91 50
124 18 57 18 61 -3 170 -31 155 -42 247 -46 367 -3 73 -10 122 -25 163 -12 33
-21 71 -22 85 0 14 -6 42 -13 61 -9 24 -10 45 -4 67 7 27 5 38 -12 61 -25 34
-39 89 -40 156 0 71 -41 157 -93 193 -23 16 -111 63 -194 103 -131 64 -153 77
-153 97 0 28 -13 39 -105 96 -85 51 -98 79 -33 67 24 -5 45 -6 47 -4 3 2 -7
17 -22 32 -25 26 -47 71 -47 95 0 7 11 -1 24 -18 13 -16 28 -27 32 -22 4 4 16
0 26 -10 10 -9 18 -12 18 -6 0 5 -9 18 -19 27 -11 10 -24 30 -31 46 -11 26 -9
31 23 62 40 39 62 97 53 141 -6 32 -6 32 39 -18 25 -27 45 -46 45 -41 0 5 -7
17 -15 26 -27 29 -35 75 -19 105 18 35 18 57 0 100 -8 19 -13 35 -11 35 3 0
22 -9 44 -21 53 -27 77 -19 29 10 -38 23 -94 88 -85 98 3 3 18 -4 33 -16 34
-26 43 -20 15 10 -12 13 -21 32 -21 43 0 12 -10 40 -23 63 -60 112 -77 145
-77 151 0 3 21 -14 46 -38 34 -33 43 -38 34 -20 -22 43 -125 137 -173 159 -25
12 -59 21 -76 21 -37 0 -50 19 -25 37 19 14 82 14 134 -2 23 -6 22 -5 -5 13
-22 15 -45 19 -90 18 -53 -1 -66 -5 -103 -34 -38 -31 -45 -33 -74 -23 -77 27
-165 7 -229 -51 -24 -22 -36 -35 -27 -28 17 12 135 50 153 50 6 -1 -3 -8 -18
-16 -27 -15 -41 -25 -114 -88 -50 -43 -66 -78 -17 -38 21 18 42 32 46 32 10 0
-86 -124 -128 -166 -25 -25 -38 -31 -60 -26 -16 2 -35 10 -43 16 -11 8 -13 8
-9 -3 8 -27 53 -50 100 -52 44 -3 46 -4 37 -26 -5 -14 -9 -35 -9 -48 0 -38
-70 -105 -108 -105 -18 0 -32 -4 -32 -10 0 -5 22 -10 49 -10 28 0 53 5 56 10
3 6 13 10 21 10 8 0 12 -4 9 -10 -21 -34 -21 -105 1 -138 12 -18 13 -26 4 -38
-7 -7 -15 -12 -19 -10 -4 3 -8 -5 -8 -17 -1 -12 -9 -27 -18 -33 -28 -20 -16
-27 40 -21 63 6 67 0 35 -58 -12 -21 -15 -34 -8 -30 7 4 2 -3 -11 -14 -13 -12
-33 -21 -45 -21 -12 0 -32 -7 -45 -16 -17 -13 -28 -14 -44 -6 -44 21 -125 32
-265 36 -118 2 -145 6 -161 20 -17 16 -26 16 -74 6 -56 -11 -112 -7 -133 11
-7 6 -41 11 -76 11 -35 0 -70 6 -78 13 -8 7 -25 16 -37 19 -13 4 -23 14 -23
22 0 8 -10 14 -22 14 -21 1 -21 2 -5 11 14 8 16 18 11 46 -6 33 -6 35 15 24
21 -12 21 -11 21 116 0 122 -1 128 -25 153 l-25 26 20 39 c11 22 20 48 20 60
0 12 17 32 41 50 22 16 49 44 60 61 18 30 46 48 112 73 21 8 28 17 25 34 -3
19 -9 22 -48 21 -25 -1 -67 -7 -93 -14 -57 -14 -75 -4 -96 57 -7 21 -26 59
-42 86 -16 26 -29 50 -29 53 0 3 -13 33 -29 67 -16 34 -31 70 -35 80 -7 21
-29 22 -46 2 -8 -9 -9 -28 -5 -56 9 -53 -4 -46 -51 27 -23 36 -41 54 -55 54
-17 0 -19 -6 -17 -40z m182 -50 c17 -30 17 -30 -7 -30 -23 0 -36 20 -37 57 0
20 25 4 44 -27z m-1 -47 c-7 -2 -21 -2 -30 0 -10 3 -4 5 12 5 17 0 24 -2 18
-5z m-136 -9 c-3 -3 -12 -4 -19 -1 -8 3 -5 6 6 6 11 1 17 -2 13 -5z m190 -406
c-3 -8 -6 -5 -6 6 -1 11 2 17 5 13 3 -3 4 -12 1 -19z m-53 -29 c15 -11 39 -24
54 -28 28 -8 39 -35 24 -59 -7 -10 -14 -10 -38 3 -33 17 -72 19 -107 6 -24
-10 -25 -9 -14 27 11 37 34 72 47 72 4 0 19 -9 34 -21z m1175 -587 c-19 -41
-26 -48 -45 -44 -23 4 -23 4 6 28 16 14 34 41 41 62 9 24 14 31 17 20 2 -10
-7 -39 -19 -66z m312 -30 l47 -67 -52 3 c-28 1 -84 7 -124 14 -70 10 -72 12
-56 29 10 11 22 19 28 19 6 0 31 16 56 35 25 19 47 35 50 35 3 0 26 -30 51
-68z m55 -14 c10 -18 24 -38 33 -45 9 -6 13 -14 10 -17 -11 -11 -69 51 -69 73
0 29 7 26 26 -11z m-335 -29 c74 -11 186 -26 249 -33 89 -10 126 -19 165 -40
97 -52 168 -102 176 -124 10 -28 2 -28 -94 -3 -39 11 -124 29 -187 41 -153 28
-310 72 -417 116 -49 20 -90 38 -93 41 -10 9 34 33 51 28 9 -3 77 -15 150 -26z
m813 -1136 c4 -9 2 -31 -4 -49 -9 -26 -8 -39 4 -63 9 -16 16 -39 16 -50 0 -12
13 -63 30 -114 43 -134 47 -177 21 -201 -25 -23 -26 -37 -5 -79 l17 -31 -47
-41 c-25 -23 -46 -48 -46 -56 0 -8 -8 -26 -17 -39 -10 -14 -36 -74 -59 -134
-37 -98 -40 -113 -31 -151 6 -24 7 -51 3 -61 -6 -15 -13 -4 -33 44 l-25 64 29
36 c17 20 35 54 42 74 11 34 10 41 -19 95 -30 54 -31 62 -25 128 8 84 71 468
84 510 6 17 15 56 21 87 8 41 15 55 25 52 7 -3 16 -13 19 -21z m-26 -752 c-15
-24 12 -128 56 -219 l31 -63 -34 -64 c-19 -36 -32 -67 -29 -71 5 -5 136 108
158 137 8 10 51 31 55 27 2 -2 -1 -22 -6 -44 -10 -38 -17 -44 -88 -82 -42 -23
-95 -44 -117 -48 -37 -5 -43 -3 -61 22 -12 16 -28 66 -36 112 l-16 83 34 90
c19 50 35 96 35 103 0 7 5 17 12 24 17 17 20 15 6 -7z m-40 -424 c27 -26 32
-27 71 -18 47 10 48 13 -20 -66 -20 -23 -53 -77 -74 -120 -20 -43 -41 -86 -46
-95 -5 -10 -9 -32 -10 -50 -1 -18 -4 -44 -8 -57 -5 -20 -8 -21 -18 -9 -7 8
-19 30 -27 49 -18 44 -9 130 19 174 17 26 17 28 2 16 -15 -12 -17 -11 -17 3 0
9 8 33 19 54 10 20 29 74 42 120 21 73 25 79 31 54 4 -15 20 -40 36 -55z m-76
18 c-7 -25 -9 -26 -15 -11 -4 10 -2 25 4 33 16 19 20 12 11 -22z m-72 -123 c0
-5 -29 -32 -65 -61 -82 -67 -231 -140 -359 -176 -89 -25 -110 -27 -205 -22
-82 4 -127 12 -201 37 -85 28 -250 105 -250 116 0 3 30 2 68 -2 48 -5 87 -17
137 -43 146 -74 173 -79 43 -7 -46 25 -81 46 -78 47 3 0 115 4 250 9 259 8
363 24 550 84 81 26 110 31 110 18z m-65 -102 c-3 -5 -11 -10 -16 -10 -6 0 -7
5 -4 10 3 6 11 10 16 10 6 0 7 -4 4 -10z m-995 -41 c0 -5 -5 -7 -11 -3 -6 3
-15 0 -20 -7 -6 -10 -9 -10 -9 -2 0 8 -11 11 -30 9 -16 -2 -30 1 -30 5 0 5 23
9 50 9 29 0 50 -5 50 -11z m945 1 c-3 -5 -13 -10 -21 -10 -8 0 -12 5 -9 10 3
6 13 10 21 10 8 0 12 -4 9 -10z m50 0 c-3 -5 -10 -10 -16 -10 -5 0 -9 5 -9 10
0 6 7 10 16 10 8 0 12 -4 9 -10z m-932 -42 c-2 -5 -11 -8 -19 -8 -8 0 -15 -10
-15 -22 l-2 -23 -4 23 c-3 15 -11 22 -29 22 -18 0 -24 -6 -25 -22 l-2 -23 -4
23 c-4 20 -18 27 -50 23 -6 -1 -14 3 -17 8 -4 6 28 9 83 8 49 -1 87 -5 84 -9z
m817 -18 c0 -16 -2 -30 -4 -30 -2 0 -6 14 -8 30 -3 17 -1 30 4 30 4 0 8 -13 8
-30z m56 14 c-3 -9 -6 -27 -6 -40 0 -16 -6 -24 -17 -24 -14 0 -15 2 -4 9 9 6
12 20 9 40 -3 22 -1 31 10 31 9 0 12 -6 8 -16z m64 12 c0 -9 -30 -14 -35 -6
-4 6 3 10 14 10 12 0 21 -2 21 -4z m-170 -31 c0 -14 -4 -25 -9 -25 -4 0 -6 11
-3 25 2 14 6 25 8 25 2 0 4 -11 4 -25z m-833 -32 c-3 -10 -5 -4 -5 12 0 17 2
24 5 18 2 -7 2 -21 0 -30z m980 -25 c-2 -13 -4 -3 -4 22 0 25 2 35 4 23 2 -13
2 -33 0 -45z m56 -137 c-8 -13 -13 15 -14 90 -1 122 4 130 10 14 3 -55 5 -102
4 -104z m-270 108 c-4 -4 -6 13 -3 39 l5 47 3 -39 c2 -21 0 -42 -5 -47z m-706
49 c-3 -8 -6 -5 -6 6 -1 11 2 17 5 13 3 -3 4 -12 1 -19z m85 -8 c3 -16 1 -30
-4 -30 -4 0 -8 14 -8 30 0 17 2 30 4 30 2 0 6 -13 8 -30z m54 5 c-2 -37 -16
-43 -16 -7 0 18 4 32 8 32 5 0 8 -11 8 -25z m524 -10 c0 -19 -4 -35 -9 -35 -5
0 -8 8 -7 18 2 10 -5 20 -18 24 -21 6 -20 6 2 7 12 1 22 6 22 11 0 6 2 10 5
10 3 0 5 -16 5 -35z m-610 10 c0 -8 -7 -15 -15 -15 -8 0 -15 5 -15 11 0 5 5 7
10 4 6 -3 10 -1 10 4 0 6 2 11 5 11 3 0 5 -7 5 -15z m-83 -17 c-3 -8 -6 -5 -6
6 -1 11 2 17 5 13 3 -3 4 -12 1 -19z m802 10 c0 -7 -4 -22 -9 -33 -8 -18 -9
-17 -9 7 -1 14 -7 29 -13 31 -7 3 -3 6 10 6 12 1 22 -5 21 -11z m-942 -120
c-2 -24 -4 -7 -4 37 0 44 2 63 4 43 2 -21 2 -57 0 -80z m423 92 c-9 -6 -9 -9
1 -13 10 -4 9 -6 -3 -6 -11 -1 -16 6 -15 18 1 12 6 17 15 14 10 -4 11 -8 2
-13z m570 6 c0 -8 -4 -17 -8 -20 -4 -2 -8 4 -8 15 0 10 4 19 8 19 4 0 8 -6 8
-14z m50 4 c0 -5 -2 -10 -4 -10 -3 0 -8 5 -11 10 -3 6 -1 10 4 10 6 0 11 -4
11 -10z m-1013 -107 c-2 -21 -4 -4 -4 37 0 41 2 58 4 38 2 -21 2 -55 0 -75z
m1153 75 c0 -5 -4 -8 -10 -8 -5 0 -10 10 -10 23 0 18 2 19 10 7 5 -8 10 -18
10 -22z m-487 15 c-13 -2 -33 -2 -45 0 -13 2 -3 4 22 4 25 0 35 -2 23 -4z
m-216 -9 c-3 -3 -12 -4 -19 -1 -8 3 -5 6 6 6 11 1 17 -2 13 -5z m-419 -45 c-3
-8 -7 -3 -11 10 -4 17 -3 21 5 13 5 -5 8 -16 6 -23z m25 -23 c3 -30 1 -43 -4
-35 -8 13 -13 97 -5 88 2 -2 6 -26 9 -53z m29 2 c3 -27 2 -48 -1 -48 -4 0 -8
24 -10 52 -3 64 4 61 11 -4z m25 -10 c-2 -13 -4 -3 -4 22 0 25 2 35 4 23 2
-13 2 -33 0 -45z m236 55 c-7 -2 -13 -11 -13 -19 0 -8 6 -14 13 -15 10 0 10
-2 0 -6 -16 -6 -17 -43 -2 -43 5 0 7 -5 4 -10 -12 -20 -25 2 -25 44 0 44 5 57
24 55 6 0 5 -3 -1 -6z m54 1 c-3 -3 -12 -4 -19 -1 -8 3 -5 6 6 6 11 1 17 -2
13 -5z m56 -1 c-7 -2 -19 -2 -25 0 -7 3 -2 5 12 5 14 0 19 -2 13 -5z m607 -43
c0 -41 -3 -50 -17 -49 -11 0 -13 3 -5 6 7 3 12 23 12 49 0 24 2 44 5 44 3 0 5
-22 5 -50z m-923 8 c-3 -7 -5 -2 -5 12 0 14 2 19 5 13 2 -7 2 -19 0 -25z m665
-19 l4 -37 -103 2 c-57 0 -103 4 -103 9 0 4 44 8 98 9 85 1 90 2 42 8 l-55 7
53 1 c28 1 51 5 51 10 -1 4 0 16 1 27 2 26 8 10 12 -36z m48 6 c0 -25 -3 -45
-7 -45 -5 0 -7 19 -6 42 2 50 2 48 8 48 3 0 5 -20 5 -45z m317 8 c-3 -10 -5
-4 -5 12 0 17 2 24 5 18 2 -7 2 -21 0 -30z m-980 21 c-3 -3 -12 -4 -19 -1 -8
3 -5 6 6 6 11 1 17 -2 13 -5z m44 -3 c-9 -6 -12 -20 -9 -40 2 -17 1 -31 -4
-31 -4 0 -8 18 -8 40 0 31 4 40 18 40 13 0 14 -2 3 -9z m55 2 c-15 -4 -16 -7
-5 -14 11 -7 11 -9 1 -9 -7 0 -11 -4 -7 -9 3 -5 1 -12 -5 -16 -6 -4 -10 6 -10
24 0 26 4 31 23 30 19 -1 19 -2 3 -6z m108 -1 c-6 -4 -10 -15 -8 -24 1 -10 -2
-18 -7 -18 -5 0 -9 11 -9 25 0 17 5 25 18 25 10 0 13 -3 6 -8z m514 -32 c1
-35 -2 -40 -21 -40 -16 0 -19 3 -8 9 9 6 12 20 9 40 -3 20 0 31 8 31 7 0 12
-16 12 -40z m52 25 c0 -8 -2 -15 -4 -15 -2 0 -6 7 -10 15 -3 8 -1 15 4 15 6 0
10 -7 10 -15z m50 -10 c0 -14 -3 -25 -7 -25 -5 0 -8 11 -8 25 0 14 3 25 8 25
4 0 7 -11 7 -25z m187 -27 c-3 -8 -6 -5 -6 6 -1 11 2 17 5 13 3 -3 4 -12 1
-19z m-750 6 c-3 -3 -12 -4 -19 -1 -8 3 -5 6 6 6 11 1 17 -2 13 -5z m76 -1
c-7 -2 -21 -2 -30 0 -10 3 -4 5 12 5 17 0 24 -2 18 -5z m140 0 c-13 -2 -33 -2
-45 0 -13 2 -3 4 22 4 25 0 35 -2 23 -4z m512 -13 c3 -5 1 -10 -4 -10 -6 0
-11 5 -11 10 0 6 2 10 4 10 3 0 8 -4 11 -10z m-1030 -10 c3 -5 1 -10 -4 -10
-6 0 -11 5 -11 10 0 6 2 10 4 10 3 0 8 -4 11 -10z m309 -11 c-6 -11 -24 -2
-24 11 0 5 7 7 15 4 8 -4 12 -10 9 -15z m126 12 c0 -3 -23 -7 -50 -7 -28 -1
-50 2 -50 6 0 4 23 7 50 7 28 0 50 -2 50 -6z m370 -11 c-8 -5 -18 -6 -24 -3
-5 4 -1 10 10 13 24 9 34 2 14 -10z m58 9 c-2 -6 -8 -10 -13 -10 -5 0 -11 4
-13 10 -2 6 4 11 13 11 9 0 15 -5 13 -11z m-828 -9 c0 -5 -2 -10 -4 -10 -3 0
-8 5 -11 10 -3 6 -1 10 4 10 6 0 11 -4 11 -10z m220 6 c0 -11 -19 -15 -25 -6
-3 5 1 10 9 10 9 0 16 -2 16 -4z m754 -31 c3 3 2 0 -3 -6 -10 -12 -31 -4 -31
13 0 7 4 7 13 -1 8 -6 17 -9 21 -6z m-1155 -9 c17 -2 32 1 33 6 2 6 9 3 16 -5
12 -14 7 -16 -42 -16 -43 0 -56 4 -56 15 0 8 4 13 9 9 5 -3 23 -7 40 -9z m91
1 c0 15 35 12 52 -5 9 -9 2 -12 -30 -12 -33 0 -42 4 -42 18 0 14 2 15 10 2 6
-10 10 -11 10 -3z m103 3 c7 0 6 -4 -3 -10 -21 -14 -27 -12 -34 6 -5 12 -2 15
10 10 8 -3 21 -6 27 -6z m163 -7 c-11 -11 -86 -10 -86 1 0 7 16 10 46 8 25 -2
43 -7 40 -9z m98 -4 c-8 -14 -24 -10 -24 6 0 9 6 12 15 9 8 -4 12 -10 9 -15z
m350 6 c2 -6 -35 -10 -100 -10 -94 0 -113 3 -100 16 9 9 196 3 200 -6z m45 -6
c-7 -4 -17 -5 -22 -2 -5 3 -3 9 4 14 7 4 17 5 22 2 5 -3 3 -9 -4 -14z m56 -7
c-2 -3 -12 -1 -22 2 -15 6 -15 9 -3 16 13 8 35 -8 25 -18z m102 1 c-3 -3 -11
-2 -17 2 -9 6 -9 10 1 16 14 8 27 -7 16 -18z m53 12 c0 -8 -7 -15 -15 -15 -8
0 -15 5 -15 11 0 5 5 7 10 4 6 -3 10 -1 10 4 0 6 2 11 5 11 3 0 5 -7 5 -15z
m135 5 c3 -5 1 -10 -4 -10 -6 0 -11 5 -11 10 0 6 2 10 4 10 3 0 8 -4 11 -10z
m-950 -10 c-27 -12 -35 -12 -35 0 0 6 12 10 28 9 24 0 25 -1 7 -9z m155 6 c0
-3 -4 -8 -10 -11 -5 -3 -10 -1 -10 4 0 6 5 11 10 11 6 0 10 -2 10 -4z m180 -3
c0 -5 -23 -8 -50 -8 -28 0 -50 3 -50 7 0 5 23 8 50 8 28 0 50 -3 50 -7z m380
-3 c0 -5 -6 -10 -14 -10 -8 0 -18 5 -21 10 -3 6 3 10 14 10 12 0 21 -4 21 -10z
m-505 -39 c-10 -9 -85 -11 -85 -1 0 5 15 10 33 12 36 4 61 -1 52 -11z m345 6
c0 -10 -24 -13 -100 -13 -55 1 -100 4 -100 8 0 4 44 9 98 11 53 1 98 4 100 5
1 1 2 -4 2 -11z m55 -15 c-2 -3 -12 -1 -22 2 -15 6 -15 9 -3 16 13 8 35 -8 25
-18z m285 18 c0 -5 -15 -9 -32 -9 l-33 1 30 8 c17 4 31 8 33 9 1 0 2 -3 2 -9z
m60 -6 c0 -2 -11 -4 -25 -4 -14 0 -25 4 -25 9 0 4 11 6 25 3 14 -2 25 -6 25
-8z m-1144 -6 c4 -5 -21 -8 -55 -8 -34 0 -60 3 -58 8 7 9 103 9 113 0z m133 1
c-17 -11 -119 -12 -119 -1 0 4 30 8 66 9 42 0 62 -2 53 -8z m56 1 c-3 -5 -10
-10 -16 -10 -5 0 -9 5 -9 10 0 6 7 10 16 10 8 0 12 -4 9 -10z m53 -1 c-2 -6
-8 -10 -13 -10 -5 0 -11 4 -13 10 -2 6 4 11 13 11 9 0 15 -5 13 -11z m52 3 c0
-14 -11 -21 -26 -15 -8 3 -11 9 -8 14 7 11 34 12 34 1z m150 -7 c0 -9 -6 -12
-15 -9 -8 4 -12 10 -9 15 8 14 24 10 24 -6z m80 8 c0 -10 -57 -9 -67 0 -3 4
10 7 30 7 21 0 37 -3 37 -7z m325 -3 c3 -5 -1 -10 -9 -10 -8 0 -18 5 -21 10
-3 6 1 10 9 10 8 0 18 -4 21 -10z m51 -3 c4 -4 0 -7 -9 -7 -9 0 -18 4 -21 9
-7 10 20 9 30 -2z m54 3 c0 -5 -6 -10 -14 -10 -8 0 -18 5 -21 10 -3 6 3 10 14
10 12 0 21 -4 21 -10z m55 0 c3 -6 -4 -10 -17 -10 -18 0 -20 2 -8 10 19 12 18
12 25 0z m104 -34 c9 -11 6 -13 -14 -13 -14 0 -25 4 -25 9 0 5 5 6 10 3 6 -3
10 -1 10 4 0 15 5 14 19 -3z m-1149 -8 c0 -5 -16 -8 -35 -8 -19 0 -35 3 -35 8
0 4 16 7 35 7 19 0 35 -3 35 -7z m96 -1 c4 -4 -5 -7 -19 -7 -15 0 -27 4 -27 8
0 10 36 9 46 -1z m69 7 c12 -5 14 -9 4 -14 -15 -10 -41 -1 -33 11 6 11 8 11
29 3z m182 -8 c4 -3 0 -6 -8 -7 -8 0 -44 -1 -81 -3 -45 -2 -65 1 -62 9 5 11
140 13 151 1z m53 -2 c0 -2 -9 -4 -20 -4 -11 0 -20 4 -20 9 0 5 9 7 20 4 11
-3 20 -7 20 -9z m38 7 c11 -7 11 -9 -1 -14 -16 -6 -27 0 -27 15 0 10 11 10 28
-1z m122 1 c0 -4 -13 -8 -30 -7 -16 0 -30 3 -30 7 0 5 14 8 30 8 17 0 30 -4
30 -8z m224 0 c3 -5 -42 -9 -99 -9 -58 0 -105 4 -105 9 0 11 197 11 204 0z
m52 -5 c4 -4 0 -7 -9 -7 -9 0 -18 4 -21 9 -7 10 20 9 30 -2z m49 3 c3 -5 -1
-10 -10 -10 -9 0 -13 5 -10 10 3 6 8 10 10 10 2 0 7 -4 10 -10z m50 0 c3 -5
-1 -10 -10 -10 -9 0 -13 5 -10 10 3 6 8 10 10 10 2 0 7 -4 10 -10z m55 0 c0
-5 -7 -10 -16 -10 -8 0 -12 5 -9 10 3 6 10 10 16 10 5 0 9 -4 9 -10z m50 0 c0
-5 -8 -10 -17 -10 -15 0 -16 2 -3 10 19 12 20 12 20 0z m-560 -10 c0 -5 -2
-10 -4 -10 -3 0 -8 5 -11 10 -3 6 -1 10 4 10 6 0 11 -4 11 -10z m-536 -36 c3
-8 2 -12 -4 -9 -6 3 -10 10 -10 16 0 14 7 11 14 -7z m146 3 c0 -16 -37 -20
-46 -5 -5 7 -1 9 9 5 9 -3 19 -2 22 3 9 14 15 12 15 -3z m345 -8 c-8 -11 -75
-8 -75 4 0 5 11 6 25 3 14 -4 25 -2 25 3 0 6 7 8 15 5 8 -4 12 -10 10 -15z
m119 13 c6 -10 -51 -9 -60 1 -4 4 7 7 24 7 17 0 33 -4 36 -8z m46 -2 c0 -5 -5
-10 -11 -10 -5 0 -7 5 -4 10 3 6 8 10 11 10 2 0 4 -4 4 -10z m76 -3 c2 -2 -12
-4 -31 -5 -19 -1 -35 3 -35 9 0 9 56 6 66 -4z m109 3 c3 -6 -4 -10 -17 -10
-18 0 -20 2 -8 10 19 12 18 12 25 0z m40 -9 c-3 -6 -11 -8 -17 -5 -6 4 -5 9 3
15 16 10 23 4 14 -10z m60 9 c3 -6 -4 -10 -17 -10 -18 0 -20 2 -8 10 19 12 18
12 25 0z m105 0 c0 -5 -8 -10 -17 -10 -15 0 -16 2 -3 10 19 12 20 12 20 0z
m155 0 c3 -5 1 -10 -4 -10 -6 0 -11 5 -11 10 0 6 2 10 4 10 3 0 8 -4 11 -10z
m-1115 -10 c0 -5 -2 -10 -4 -10 -3 0 -8 5 -11 10 -3 6 -1 10 4 10 6 0 11 -4
11 -10z m140 -5 c-12 -15 -30 -12 -30 6 0 5 10 9 21 9 18 0 19 -2 9 -15z m64
6 c7 -11 -22 -23 -35 -15 -5 3 -7 10 -4 15 8 12 32 12 39 0z m46 -1 c0 -5 -7
-10 -15 -10 -8 0 -15 5 -15 10 0 6 7 10 15 10 8 0 15 -4 15 -10z m65 0 c3 -6
-1 -7 -9 -4 -9 3 -16 1 -16 -6 0 -6 -4 -8 -10 -5 -5 3 -10 10 -10 16 0 12 37
12 45 -1z m135 -6 c0 -8 -4 -12 -10 -9 -5 3 -10 10 -10 16 0 5 5 9 10 9 6 0
10 -7 10 -16z m557 10 c-3 -3 -12 -4 -19 -1 -8 3 -5 6 6 6 11 1 17 -2 13 -5z
m-497 -34 c23 -8 22 -8 -8 -7 -19 1 -36 5 -38 9 -6 10 13 9 46 -2z m239 -4
c-5 -5 -154 -9 -184 -5 -11 2 25 5 80 8 98 6 113 5 104 -3z m51 4 c0 -5 -8
-10 -17 -10 -15 0 -16 2 -3 10 19 12 20 12 20 0z m163 -4 c4 -10 0 -12 -15 -8
-15 4 -17 7 -6 13 17 11 15 11 21 -5z m122 4 c3 -6 -4 -10 -17 -10 -18 0 -20
2 -8 10 19 12 18 12 25 0z m35 0 c0 -5 -4 -10 -10 -10 -5 0 -10 5 -10 10 0 6
5 10 10 10 6 0 10 -4 10 -10z m-1174 -13 c4 -4 -5 -7 -19 -7 -15 0 -27 4 -27
8 0 10 36 9 46 -1z m60 0 c4 -4 -5 -7 -19 -7 -15 0 -27 4 -27 8 0 10 36 9 46
-1z m29 3 c3 -5 1 -10 -4 -10 -6 0 -11 5 -11 10 0 6 2 10 4 10 3 0 8 -4 11
-10z m61 -3 c4 -4 -5 -7 -19 -7 -15 0 -27 4 -27 8 0 10 36 9 46 -1z m42 -8
c-19 -13 -28 -11 -28 5 0 9 7 12 21 9 16 -4 17 -8 7 -14z m110 0 c-19 -13 -28
-11 -28 5 0 9 7 12 21 9 16 -4 17 -8 7 -14z m106 0 c-8 -14 -24 -10 -24 6 0 9
6 12 15 9 8 -4 12 -10 9 -15z m47 8 c-1 -12 -15 -9 -19 4 -3 6 1 10 8 8 6 -3
11 -8 11 -12z m453 4 c4 -5 -3 -7 -14 -4 -23 6 -26 13 -6 13 8 0 17 -4 20 -9z
m56 5 c0 -9 -30 -14 -35 -6 -4 6 3 10 14 10 12 0 21 -2 21 -4z m100 0 c0 -11
-19 -15 -25 -6 -3 5 1 10 9 10 9 0 16 -2 16 -4z m-815 -16 c-3 -5 -10 -10 -16
-10 -5 0 -9 5 -9 10 0 6 7 10 16 10 8 0 12 -4 9 -10z m115 6 c0 -2 -7 -6 -15
-10 -8 -3 -15 -1 -15 4 0 6 7 10 15 10 8 0 15 -2 15 -4z m140 -6 c0 -5 -2 -10
-4 -10 -3 0 -8 5 -11 10 -3 6 -1 10 4 10 6 0 11 -4 11 -10z m310 -29 c0 -6
-196 -6 -210 1 -8 3 194 13 203 10 4 -2 7 -7 7 -11z m-845 -1 c3 -5 1 -10 -4
-10 -6 0 -11 5 -11 10 0 6 2 10 4 10 3 0 8 -4 11 -10z m151 -3 c4 -4 -25 -7
-64 -7 -40 0 -72 3 -72 8 0 9 127 8 136 -1z m354 -3 c0 -2 -9 -4 -20 -4 -11 0
-20 4 -20 9 0 5 9 7 20 4 11 -3 20 -7 20 -9z m103 8 c-7 -4 -14 -37 -16 -72
l-3 -65 -2 68 c-2 71 -19 92 -24 30 l-3 -38 -5 43 -6 42 36 0 c20 0 30 -4 23
-8z m282 -2 c8 -13 -5 -13 -25 0 -13 8 -13 10 2 10 9 0 20 -4 23 -10z m50 0
c3 -5 -3 -10 -14 -10 -12 0 -21 5 -21 10 0 6 6 10 14 10 8 0 18 -4 21 -10z
m60 0 c3 -5 -3 -10 -15 -10 -12 0 -18 5 -15 10 3 6 10 10 15 10 5 0 12 -4 15
-10z m45 0 c0 -5 -4 -10 -9 -10 -6 0 -13 5 -16 10 -3 6 1 10 9 10 9 0 16 -4
16 -10z m55 0 c3 -5 -1 -10 -10 -10 -9 0 -13 5 -10 10 3 6 8 10 10 10 2 0 7
-4 10 -10z m65 4 c0 -8 -19 -13 -24 -6 -3 5 1 9 9 9 8 0 15 -2 15 -3z m-948
-121 l3 -118 -112 0 c-62 1 -115 4 -119 8 -4 4 43 7 104 7 l112 0 0 50 0 50
-37 1 -38 2 40 7 c36 6 33 7 -30 10 l-70 4 65 5 66 6 -1 43 c0 23 3 42 7 42 4
0 8 -53 10 -117z m46 40 c-1 -67 -2 -70 -5 -23 -3 30 -10 58 -16 62 -9 6 -9 8
1 8 6 0 12 7 12 15 0 8 2 15 5 15 3 0 4 -35 3 -77z m64 -43 c-3 -97 -6 -120
-18 -120 -12 0 -12 3 -2 20 11 17 10 22 -2 30 -8 5 -10 10 -4 10 8 0 11 29 10
90 0 54 3 90 9 90 6 0 9 -45 7 -120z m58 116 c0 -3 -4 -8 -10 -11 -5 -3 -10
-1 -10 4 0 6 5 11 10 11 6 0 10 -2 10 -4z m50 -10 c0 -23 -16 -27 -17 -5 -1
10 2 19 8 19 5 0 9 -6 9 -14z m217 -43 c-3 -10 -5 -4 -5 12 0 17 2 24 5 18 2
-7 2 -21 0 -30z m50 15 c-3 -8 -6 -5 -6 6 -1 11 2 17 5 13 3 -3 4 -12 1 -19z
m30 -111 c-2 -23 -3 -2 -3 48 0 50 1 68 3 42 2 -26 2 -67 0 -90z m30 0 c-2
-23 -3 -2 -3 48 0 50 1 68 3 42 2 -26 2 -67 0 -90z m30 26 c-2 -21 -4 -4 -4
37 0 41 2 58 4 38 2 -21 2 -55 0 -75z m85 61 c1 -21 6 -42 12 -46 7 -5 7 -8
-2 -8 -7 0 -10 -5 -6 -12 4 -7 3 -8 -4 -4 -7 4 -12 32 -12 63 0 63 10 68 12 7z
m59 16 c-3 -3 -9 -9 -13 -14 -5 -5 -8 3 -8 18 0 22 2 25 14 14 8 -7 11 -15 7
-18z m164 22 c-5 -4 -12 -16 -13 -27 -6 -32 -12 -31 -12 3 0 24 4 32 18 32 9
0 13 -4 7 -8z m52 2 c-3 -3 -12 -4 -19 -1 -8 3 -5 6 6 6 11 1 17 -2 13 -5z
m-619 -40 c1 -15 -2 -23 -8 -19 -6 4 -8 11 -5 16 4 5 0 9 -7 9 -9 0 -9 3 2 10
8 5 15 10 15 10 0 0 2 -11 3 -26z m89 -81 c-2 -21 -4 -4 -4 37 0 41 2 58 4 38
2 -21 2 -55 0 -75z m220 101 c-3 -3 -12 -4 -19 -1 -8 3 -5 6 6 6 11 1 17 -2
13 -5z m-407 -19 c0 -8 -4 -15 -8 -15 -5 0 -9 7 -9 15 0 8 4 15 9 15 4 0 8 -7
8 -15z m47 -7 c-3 -8 -6 -5 -6 6 -1 11 2 17 5 13 3 -3 4 -12 1 -19z m200 -110
c-2 -24 -4 -5 -4 42 0 47 2 66 4 43 2 -24 2 -62 0 -85z m157 110 c-3 -4 -9 -8
-15 -8 -5 0 -9 4 -9 8 0 5 7 9 15 9 8 0 12 -4 9 -9z m329 5 c-7 -2 -21 -2 -30
0 -10 3 -4 5 12 5 17 0 24 -2 18 -5z m-793 -28 c0 -14 -2 -25 -4 -25 -2 0 -6
11 -8 25 -3 14 -1 25 3 25 5 0 9 -11 9 -25z m277 -77 c-2 -18 -4 -4 -4 32 0
36 2 50 4 33 2 -18 2 -48 0 -65z m274 57 c2 -16 8 -33 14 -37 6 -5 4 -8 -5 -9
-10 0 -8 -3 5 -9 l20 -9 -20 0 c-17 -1 -17 -3 -5 -11 13 -8 12 -10 -2 -10 -15
0 -18 10 -18 62 0 64 6 75 11 23z m-873 18 c-10 -2 -28 -2 -40 0 -13 2 -5 4
17 4 22 1 32 -1 23 -4z m1002 3 c0 -2 -7 -6 -15 -10 -8 -3 -15 -1 -15 4 0 6 7
10 15 10 8 0 15 -2 15 -4z m41 -3 c-11 -5 -11 -7 0 -14 11 -7 11 -9 1 -9 -7 0
-10 -5 -6 -12 4 -7 3 -8 -4 -4 -19 11 -14 46 6 45 12 0 13 -2 3 -6z m-534 -25
c-3 -8 -6 -5 -6 6 -1 11 2 17 5 13 3 -3 4 -12 1 -19z m-480 5 c-20 -2 -52 -2
-70 0 -17 2 0 4 38 4 39 0 53 -2 32 -4z m403 -45 c0 -28 -3 -48 -7 -45 -9 10
-10 97 0 97 4 0 7 -23 7 -52z m344 37 c-4 -8 -8 -15 -10 -15 -2 0 -4 7 -4 15
0 8 4 15 10 15 5 0 7 -7 4 -15z m-291 -104 c-7 -9 -13 8 -17 45 -5 62 8 75 15
14 3 -30 4 -57 2 -59z m54 67 c-3 -8 -6 -5 -6 6 -1 11 2 17 5 13 3 -3 4 -12 1
-19z m250 6 c-3 -3 -12 -4 -19 -1 -8 3 -5 6 6 6 11 1 17 -2 13 -5z m38 -4 c-3
-5 0 -10 7 -10 9 0 9 -3 -2 -10 -13 -8 -12 -10 5 -11 17 -1 17 -2 3 -6 -21 -5
-23 -19 -5 -26 7 -3 5 -6 -5 -6 -14 -1 -18 7 -18 39 0 22 5 40 11 40 5 0 7 -4
4 -10z m-38 -16 c-3 -3 -12 -4 -19 -1 -8 3 -5 6 6 6 11 1 17 -2 13 -5z m153
-4 c-13 -9 -13 -10 0 -10 12 0 13 -2 1 -9 -7 -5 -10 -14 -7 -20 4 -6 2 -11 -3
-11 -6 0 -11 14 -11 30 0 22 5 30 18 30 14 0 15 -2 2 -10z m57 4 c-3 -3 -12
-4 -19 -1 -8 3 -5 6 6 6 11 1 17 -2 13 -5z m50 0 c-3 -3 -12 -4 -19 -1 -8 3
-5 6 6 6 11 1 17 -2 13 -5z m-837 -18 c0 -8 3 -21 6 -30 4 -10 1 -16 -7 -16
-9 0 -14 11 -14 30 0 17 3 30 8 30 4 0 7 -6 7 -14z m340 -28 c0 -5 -4 -8 -10
-8 -5 0 -10 10 -10 23 0 18 2 19 10 7 5 -8 10 -18 10 -22z m237 26 c-3 -3 -12
-4 -19 -1 -8 3 -5 6 6 6 11 1 17 -2 13 -5z m330 0 c-3 -3 -12 -4 -19 -1 -8 3
-5 6 6 6 11 1 17 -2 13 -5z m-397 -25 c0 -5 -9 -9 -20 -9 -11 0 -20 5 -20 11
0 5 5 7 10 4 6 -3 10 -1 10 5 0 6 5 8 10 5 6 -3 10 -10 10 -16z m-55 1 c3 -5
-1 -10 -10 -10 -9 0 -13 5 -10 10 3 6 8 10 10 10 2 0 7 -4 10 -10z m80 0 c3
-5 1 -10 -4 -10 -6 0 -11 5 -11 10 0 6 2 10 4 10 3 0 8 -4 11 -10z m255 -6 c0
-2 -9 -4 -21 -4 -11 0 -18 4 -14 10 5 8 35 3 35 -6z m50 1 c0 -12 -19 -12 -23
0 -4 9 -1 12 9 8 7 -3 14 -7 14 -8z m100 11 c0 -2 -9 -6 -20 -9 -11 -3 -18 -1
-14 4 5 9 34 13 34 5z m-825 -16 c3 -5 -1 -10 -10 -10 -9 0 -13 5 -10 10 3 6
8 10 10 10 2 0 7 -4 10 -10z m60 0 c3 -5 -3 -10 -14 -10 -12 0 -21 5 -21 10 0
6 6 10 14 10 8 0 18 -4 21 -10z m45 0 c0 -5 -7 -10 -15 -10 -8 0 -15 5 -15 10
0 6 7 10 15 10 8 0 15 -4 15 -10z m357 4 c-3 -3 -12 -4 -19 -1 -8 3 -5 6 6 6
11 1 17 -2 13 -5z m100 0 c-3 -3 -12 -4 -19 -1 -8 3 -5 6 6 6 11 1 17 -2 13
-5z m-377 -45 c0 -6 -4 -7 -10 -4 -5 3 -10 11 -10 16 0 6 5 7 10 4 6 -3 10
-11 10 -16z m204 0 c-3 -5 -10 -7 -15 -3 -5 3 -7 10 -3 15 3 5 10 7 15 3 5 -3
7 -10 3 -15z m31 11 c3 -5 1 -10 -4 -10 -6 0 -11 5 -11 10 0 6 2 10 4 10 3 0
8 -4 11 -10z m43 -1 c-5 -14 -21 -14 -26 0 -2 6 4 11 13 11 9 0 15 -5 13 -11z
m54 -4 c0 -5 -5 -11 -11 -13 -6 -2 -11 4 -11 13 0 9 5 15 11 13 6 -2 11 -8 11
-13z m48 -6 c0 -6 -4 -7 -10 -4 -5 3 -10 11 -10 16 0 6 5 7 10 4 6 -3 10 -11
10 -16z m160 11 c0 -5 -4 -10 -10 -10 -5 0 -10 5 -10 10 0 6 5 10 10 10 6 0
10 -4 10 -10z m95 0 c3 -6 -4 -10 -17 -10 -18 0 -20 2 -8 10 19 12 18 12 25 0z
m-975 -9 c3 -1 -2 -5 -10 -10 -8 -6 -18 -7 -24 -4 -16 11 -106 11 -106 0 0 -6
-5 -6 -12 1 -7 5 -30 8 -51 7 -20 -2 -39 1 -42 5 -4 6 223 7 245 1z m45 -1 c3
-5 -1 -10 -9 -10 -9 0 -16 5 -16 10 0 6 4 10 9 10 6 0 13 -4 16 -10z m55 0 c0
-5 -7 -10 -16 -10 -8 0 -12 5 -9 10 3 6 10 10 16 10 5 0 9 -4 9 -10z m50 0 c0
-5 -8 -10 -17 -10 -15 0 -16 2 -3 10 19 12 20 12 20 0z m60 -5 c0 -9 -6 -12
-15 -9 -8 4 -12 10 -9 15 8 14 24 10 24 -6z m566 6 c-3 -5 -15 -7 -26 -4 -28
7 -25 13 6 13 14 0 23 -4 20 -9z m54 5 c0 -3 -4 -8 -10 -11 -5 -3 -10 -1 -10
4 0 6 5 11 10 11 6 0 10 -2 10 -4z m-573 -12 c-3 -3 -12 -4 -19 -1 -8 3 -5 6
6 6 11 1 17 -2 13 -5z m329 -28 c3 7 14 10 24 7 11 -3 17 -9 14 -14 -7 -12
-81 -11 -89 1 -3 6 1 7 9 4 10 -4 16 -1 16 7 0 11 3 11 11 -1 7 -10 12 -11 15
-4z m88 -7 c-8 -14 -24 -10 -24 6 0 9 6 12 15 9 8 -4 12 -10 9 -15z m84 9 c19
1 32 -1 28 -5 -3 -3 -24 -7 -46 -8 -29 -2 -40 2 -40 12 0 8 5 11 12 7 6 -4 27
-7 46 -6z m130 -3 c-2 -1 -23 -5 -47 -8 -45 -6 -46 8 -1 15 23 4 55 -1 48 -7z
m-892 -12 c-6 -6 -39 -6 -161 -2 -77 3 -75 3 35 8 112 6 137 5 126 -6z m54 -3
c0 -5 -7 -7 -15 -4 -8 4 -12 10 -9 15 6 11 24 2 24 -11z m105 -8 c-2 -3 -12
-1 -22 2 -15 6 -15 9 -3 16 13 8 35 -8 25 -18z m181 15 c4 -4 -8 -7 -27 -7
-23 0 -30 3 -20 9 15 10 37 9 47 -2z m664 7 c-38 -8 -90 -9 -90 -2 0 4 24 7
53 7 28 -1 45 -3 37 -5z m-903 -10 c-3 -3 -12 -4 -19 -1 -8 3 -5 6 6 6 11 1
17 -2 13 -5z m113 -4 c0 -5 -6 -10 -14 -10 -8 0 -18 5 -21 10 -3 6 3 10 14 10
12 0 21 -4 21 -10z"/>
<path d="M3150 890 c0 -19 218 -37 265 -21 24 7 8 10 -75 11 -58 0 -124 5
-147 9 -24 5 -43 5 -43 1z"/>
<path d="M2070 4396 c0 -2 12 -24 26 -47 24 -41 25 -30 3 29 -7 18 -29 32 -29
18z"/>
<path d="M2000 4345 c7 -9 15 -13 17 -11 7 7 -7 26 -19 26 -6 0 -6 -6 2 -15z"/>
</g>
</svg>
